<?xml version="1.0" encoding="utf-8"?>
<!-- Generator: Adobe Illustrator 24.1.2, SVG Export Plug-In . SVG Version: 6.00 Build 0)  -->
<svg version="1.1" id="Layer_1" focusable="false" xmlns="http://www.w3.org/2000/svg" xmlns:xlink="http://www.w3.org/1999/xlink"
	 x="0px" y="0px" viewBox="0 0 576 512" style="enable-background:new 0 0 576 512;" xml:space="preserve">
<style type="text/css">
	.st0{fill:#6C757F;}
</style>
<path class="st0" d="M560,288h-80v96l-32-21.3L416,384v-96h-80c-8.8,0-16,7.2-16,16v192c0,8.8,7.2,16,16,16h224c8.8,0,16-7.2,16-16
	V304C576,295.2,568.8,288,560,288z M176,224h224c8.8,0,16-7.2,16-16V16c0-8.8-7.2-16-16-16h-80v96l-32-21.3L256,96V0h-80
	c-8.8,0-16,7.2-16,16v192C160,216.8,167.2,224,176,224z M240,288h-80v96l-32-21.3L96,384v-96H16c-8.8,0-16,7.2-16,16v192
	c0,8.8,7.2,16,16,16h224c8.8,0,16-7.2,16-16V304C256,295.2,248.8,288,240,288z"/>
</svg>
