<?xml version="1.0" encoding="utf-8"?>
<!-- Generator: Adobe Illustrator 24.1.2, SVG Export Plug-In . SVG Version: 6.00 Build 0)  -->
<svg version="1.1" id="Layer_1" focusable="false" xmlns="http://www.w3.org/2000/svg" xmlns:xlink="http://www.w3.org/1999/xlink"
	 x="0px" y="0px" viewBox="0 0 480 512" style="enable-background:new 0 0 480 512;" xml:space="preserve">
<style type="text/css">
	.st0{fill:#6C757F;}
</style>
<path class="st0" d="M477.7,186.1L309.5,18.3c-3.1-3.1-8.2-3.1-11.3,0l-34,33.9c-3.1,3.1-3.1,8.2,0,11.3l11.2,11.1L33,316.5
	c-38.8,38.7-45.1,102-9.4,143.5c20.6,24,49.5,36,78.4,35.9c26.4,0,52.8-10,72.9-30.1l246.3-245.7l11.2,11.1c3.1,3.1,8.2,3.1,11.3,0
	l34-33.9C480.8,194.3,480.8,189.2,477.7,186.1L477.7,186.1z M318,256H161l148-147.7l78.5,78.3L318,256z"/>
</svg>
